<svg width="97" height="27" viewBox="0 0 97 27" fill="none" xmlns="http://www.w3.org/2000/svg">
<path d="M18.36 23.156H19.944C20.304 23.156 20.484 23.336 20.484 23.696V25.46C20.484 25.82 20.304 26 19.944 26H15.912C15.624 26 15.444 25.82 15.372 25.46L15.048 23.444C13.512 25.436 11.496 26.432 9 26.432C5.112 26.432 3.168 24.392 3.168 20.312V11.132H1.26C0.9 11.132 0.72 10.952 0.72 10.592V8.72C0.72 8.36 0.9 8.18 1.26 8.18H6.66C7.02 8.18 7.2 8.36 7.2 8.72V19.232C7.2 20.672 7.38 21.704 7.74 22.328C8.124 22.928 8.916 23.228 10.116 23.228C11.34 23.228 12.348 22.868 13.14 22.148C13.932 21.428 14.328 20.612 14.328 19.7V11.132H12.06C11.7 11.132 11.52 10.952 11.52 10.592V8.72C11.52 8.36 11.7 8.18 12.06 8.18H17.82C18.18 8.18 18.36 8.36 18.36 8.72V23.156ZM31.0908 26.432C28.2348 26.432 26.1348 25.604 24.7908 23.948C23.4708 22.268 22.8108 20.06 22.8108 17.324C22.8108 14.564 23.5188 12.284 24.9348 10.484C26.3508 8.684 28.3908 7.784 31.0548 7.784C32.3748 7.784 33.5028 8.036 34.4388 8.54C35.3988 9.02 36.1308 9.68 36.6348 10.52C37.5948 12.152 38.0748 14.036 38.0748 16.172C38.0748 17.18 38.0268 17.732 37.9308 17.828C37.8348 17.924 37.6548 17.972 37.3908 17.972H26.8068C26.9268 19.7 27.3468 21.044 28.0668 22.004C28.8108 22.94 30.0828 23.408 31.8828 23.408C33.2028 23.408 34.5588 23.096 35.9508 22.472C36.2868 22.304 36.5268 22.4 36.6708 22.76L37.3548 24.416C37.4748 24.704 37.3668 24.944 37.0308 25.136C35.4468 26 33.4668 26.432 31.0908 26.432ZM26.8068 15.308H34.2948C34.3428 12.308 33.1668 10.808 30.7668 10.808C29.3508 10.808 28.3428 11.264 27.7428 12.176C27.1668 13.064 26.8548 14.108 26.8068 15.308ZM46.3641 11.276C46.7721 10.316 47.4321 9.5 48.3441 8.828C49.2561 8.132 50.2521 7.784 51.3321 7.784C52.4121 7.784 53.2401 7.88 53.8161 8.072C54.1041 8.168 54.2481 8.384 54.2481 8.72V13.58C54.2481 13.94 54.0681 14.12 53.7081 14.12H51.3681C51.0081 14.12 50.8401 13.94 50.8641 13.58L51.0081 11.492C50.8881 11.468 50.6841 11.456 50.3961 11.456C49.2921 11.456 48.3801 11.912 47.6601 12.824C46.9401 13.712 46.5801 14.912 46.5801 16.424V23.156H50.5401C50.9001 23.156 51.0801 23.336 51.0801 23.696V25.46C51.0801 25.82 50.9001 26 50.5401 26H40.6401C40.2801 26 40.1001 25.82 40.1001 25.46V23.696C40.1001 23.336 40.2801 23.156 40.6401 23.156H42.5481V11.132H40.6041C40.2441 11.132 40.0641 10.952 40.0641 10.592V8.72C40.0641 8.36 40.2441 8.18 40.6041 8.18H45.3561C45.6921 8.18 45.8961 8.36 45.9681 8.72L46.3641 11.276ZM62.8223 23.156H65.0903C65.4503 23.156 65.6303 23.336 65.6303 23.696V25.46C65.6303 25.82 65.4503 26 65.0903 26H56.5223C56.1623 26 55.9823 25.82 55.9823 25.46V23.696C55.9823 23.336 56.1623 23.156 56.5223 23.156C56.5223 23.156 57.2783 23.156 58.7903 23.156V11.132H56.8463C56.4863 11.132 56.3063 10.952 56.3063 10.592V8.72C56.3063 8.36 56.4863 8.18 56.8463 8.18H62.2823C62.6423 8.18 62.8223 8.36 62.8223 8.72V23.156ZM58.4663 4.976C58.0103 4.496 57.7822 3.884 57.7822 3.14C57.7822 2.396 58.0103 1.784 58.4663 1.304C58.9463 0.799999 59.5703 0.547999 60.3383 0.547999C61.1303 0.547999 61.7543 0.799999 62.2103 1.304C62.6903 1.784 62.9303 2.396 62.9303 3.14C62.9303 3.884 62.6903 4.496 62.2103 4.976C61.7303 5.456 61.0943 5.696 60.3023 5.696C59.5343 5.696 58.9223 5.456 58.4663 4.976ZM73.1523 11.132V20.204C73.1523 21.332 73.2963 22.148 73.5843 22.652C73.8723 23.156 74.4123 23.408 75.2043 23.408C75.9963 23.408 76.7643 23.24 77.5083 22.904C77.7723 22.808 77.9643 22.904 78.0843 23.192L78.7323 24.848C78.7563 24.92 78.7683 25.028 78.7683 25.172C78.7683 25.292 78.6483 25.424 78.4083 25.568C77.2563 26.144 75.8883 26.432 74.3043 26.432C72.1683 26.432 70.7643 25.88 70.0923 24.776C69.6123 24.056 69.3363 23.36 69.2643 22.688C69.1683 21.776 69.1203 20.816 69.1203 19.808V11.132H67.0683C66.7083 11.132 66.5283 10.952 66.5283 10.592V8.72C66.5283 8.36 66.7083 8.18 67.0683 8.18H69.1203V3.32C69.1203 2.96 69.3003 2.78 69.6603 2.78H72.6123C72.9723 2.78 73.1523 2.96 73.1523 3.32V8.18H76.7883C77.1483 8.18 77.3283 8.36 77.3283 8.72V10.592C77.3283 10.952 77.1483 11.132 76.7883 11.132H73.1523ZM90.7338 15.308V14.048C90.7338 12.344 90.2538 11.276 89.2938 10.844C88.8378 10.652 88.1778 10.556 87.3138 10.556C85.6818 10.556 84.6978 11.324 84.3618 12.86C84.2898 13.22 84.1098 13.4 83.8218 13.4H81.5178C81.1338 13.4 80.9658 13.22 81.0138 12.86C81.1098 11.108 81.8178 9.824 83.1378 9.008C84.4578 8.192 86.1378 7.784 88.1778 7.784C92.4738 7.784 94.6218 9.752 94.6218 13.688V23.156H96.1698C96.5298 23.156 96.7098 23.336 96.7098 23.696V25.46C96.7098 25.82 96.5298 26 96.1698 26H91.9218C91.6098 26 91.4298 25.82 91.3818 25.46L91.1298 23.804C89.8338 25.556 87.9618 26.432 85.5138 26.432C83.9778 26.432 82.7058 26.036 81.6978 25.244C80.6898 24.428 80.1858 23.132 80.1858 21.356C80.1858 19.028 81.1578 17.432 83.1018 16.568C84.7098 15.824 86.6298 15.416 88.8618 15.344C89.3178 15.344 89.9418 15.332 90.7338 15.308ZM90.8058 20.564V17.792C88.5018 17.792 87.0858 17.9 86.5578 18.116C86.0298 18.332 85.5618 18.548 85.1538 18.764C84.3858 19.172 84.0018 19.916 84.0018 20.996C84.0018 22.652 84.9498 23.48 86.8458 23.48C88.0938 23.48 89.0658 23.192 89.7618 22.616C90.4578 22.016 90.8058 21.332 90.8058 20.564Z" fill="#00A884"/>
</svg>
